# Blender 3.6.4
# www.blender.org
mtllib 1_map.mtl
o Cube
v 99.603416 99.603416 -99.603416
v 99.603416 -99.603416 -99.603416
v 99.603416 99.603416 99.603416
v 99.603416 -99.603416 99.603416
v -99.603416 99.603416 -99.603416
v -99.603416 -99.603416 -99.603416
v -99.603416 99.603416 99.603416
v -99.603416 -99.603416 99.603416
v 96.396538 99.603416 96.396538
v -96.396538 99.603416 96.396538
v 96.396538 99.603416 -96.396538
v -96.396538 99.603416 -96.396538
v 96.396538 97.116028 96.396538
v -96.396538 97.116028 96.396538
v 96.396538 97.116028 -96.396538
v -96.396538 97.116028 -96.396538
v 99.603416 94.238297 -99.603416
v -99.603416 94.238297 99.603416
v 99.603416 94.238297 99.603416
v -99.603416 94.238297 -99.603416
v 99.603416 89.408508 -99.603416
v 99.603416 89.408508 99.603416
v -99.603416 89.408508 -99.603416
v -99.603416 89.408508 99.603416
v -96.921120 89.473541 96.921120
v -96.921120 94.173264 96.921120
v -96.921120 94.173264 -96.921120
v 96.921120 94.173264 -96.921120
v 96.921120 94.173264 96.921120
v 96.921120 89.473541 -96.921120
v 96.921120 89.473541 96.921120
v -96.921120 89.473541 -96.921120
vn -0.0000 1.0000 -0.0000
vn -0.0000 -0.0000 1.0000
vn -1.0000 -0.0000 -0.0000
vn -0.0000 -1.0000 -0.0000
vn 1.0000 -0.0000 -0.0000
vn -0.0000 -0.0000 -1.0000
vn -0.0000 0.9997 0.0242
vn 0.0242 0.9997 -0.0000
vn 0.0242 -0.9997 -0.0000
vn -0.0000 -0.9997 0.0242
vn -0.0242 -0.9997 -0.0000
vn -0.0000 0.9997 -0.0242
vn -0.0000 -0.9997 -0.0242
vn -0.0242 0.9997 -0.0000
vt 1.000000 0.025076
vt 0.666667 0.025076
vt 0.672033 0.019710
vt 0.994634 0.019710
vt 0.647853 1.000000
vt 0.638875 1.000000
vt 0.638875 0.666667
vt 0.647853 0.666667
vt 0.656830 1.000000
vt 0.647853 1.000000
vt 0.656830 0.666667
vt 0.333333 0.333333
vt 0.000000 0.333333
vt 0.000000 0.000000
vt 0.333333 0.000000
vt 0.665808 1.000000
vt 0.656830 0.666667
vt 0.665808 0.666667
vt 1.000000 0.000000
vt 1.000000 0.008977
vt 0.666667 0.008978
vt 0.666667 0.000000
vt 0.989268 0.070510
vt 0.666667 0.070510
vt 0.666667 0.066348
vt 0.989268 0.066348
vt 0.994634 0.030442
vt 0.672033 0.030442
vt 0.666667 0.008977
vt 1.000000 0.008977
vt 0.994634 0.014344
vt 0.672033 0.014344
vt 1.000000 0.019710
vt 0.666667 0.019710
vt 0.672033 0.014344
vt 0.994634 0.014344
vt 0.638875 0.989268
vt 0.316274 0.989268
vt 0.316274 0.666667
vt 0.989268 0.074673
vt 0.666667 0.074673
vt 0.666667 0.070510
vt 0.989268 0.070510
vt 0.989268 0.078835
vt 0.666667 0.078835
vt 0.666667 0.074673
vt 0.989268 0.074673
vt 0.989268 0.082997
vt 0.666667 0.082997
vt 0.666667 0.078835
vt 0.989268 0.078835
vt 0.666667 0.030442
vt 1.000000 0.030442
vt 0.995512 0.034930
vt 0.671155 0.034930
vt 0.666667 0.048395
vt 1.000000 0.048395
vt 0.995512 0.052883
vt 0.671155 0.052883
vt 1.000000 0.057372
vt 0.666667 0.057372
vt 0.671155 0.052883
vt 0.995512 0.052883
vt 0.666667 0.034930
vt 1.000000 0.034930
vt 0.995512 0.039418
vt 0.671155 0.039418
vt 0.316274 0.666667
vt 0.000000 0.666667
vt -0.000000 0.333333
vt 0.316274 0.333333
vt 0.666667 -0.000000
vt 0.666667 0.316274
vt 0.333333 0.316274
vt 0.333333 0.000000
vt 0.666667 0.316274
vt 0.666667 0.632548
vt 0.333333 0.632548
vt 0.333333 0.316274
vt 0.316274 1.000000
vt 0.000000 1.000000
vt -0.000000 0.666667
vt 0.657690 0.632548
vt 0.657690 0.640412
vt 0.333333 0.640412
vt 0.657690 0.648277
vt 0.333333 0.648277
vt 0.333333 0.640413
vt 0.657690 0.648277
vt 0.657690 0.656141
vt 0.333333 0.656141
vt 0.657690 0.664005
vt 0.333333 0.664005
vt 0.333333 0.656141
vt 0.666667 0.057372
vt 1.000000 0.057372
vt 0.995512 0.061860
vt 0.671155 0.061860
vt 0.666667 0.039418
vt 1.000000 0.039418
vt 0.995512 0.043907
vt 0.671155 0.043907
vt 0.666667 0.043907
vt 1.000000 0.043907
vt 0.995512 0.048395
vt 0.671155 0.048395
vt 1.000000 0.066348
vt 0.666667 0.066348
vt 0.671155 0.061860
vt 0.995512 0.061860
s 0
usemtl Material.001
f 5/1/1 7/2/1 10/3/1 12/4/1
f 19/5/2 3/6/2 7/7/2 18/8/2
f 18/9/3 7/10/3 5/8/3 20/11/3
f 6/12/4 2/13/4 4/14/4 8/15/4
f 17/16/5 1/9/5 3/17/5 19/18/5
f 20/19/6 5/20/6 1/21/6 17/22/6
f 9/23/3 11/24/3 15/25/3 13/26/3
f 3/2/1 1/1/1 11/27/1 9/28/1
f 1/29/1 5/30/1 12/31/1 11/32/1
f 7/33/1 3/34/1 9/35/1 10/36/1
f 15/37/1 16/38/1 14/39/1 13/7/1
f 12/40/5 10/41/5 14/42/5 16/43/5
f 10/44/6 9/45/6 13/46/6 14/47/6
f 11/48/2 12/49/2 16/50/2 15/51/2
f 24/52/7 22/53/7 31/54/7 25/55/7
f 22/56/8 21/57/8 30/58/8 31/59/8
f 17/60/9 19/61/9 29/62/9 28/63/9
f 19/64/10 18/65/10 26/66/10 29/67/10
f 4/68/2 22/69/2 24/70/2 8/71/2
f 8/72/3 24/73/3 23/74/3 6/75/3
f 2/76/5 21/77/5 22/78/5 4/79/5
f 6/80/6 23/81/6 21/82/6 2/39/6
f 32/83/6 27/84/6 28/85/6 30/78/6
f 30/84/5 28/86/5 29/87/5 31/88/5
f 25/89/3 26/90/3 27/91/3 32/87/3
f 31/90/2 29/92/2 26/93/2 25/94/2
f 18/95/11 20/96/11 27/97/11 26/98/11
f 21/99/12 23/100/12 32/101/12 30/102/12
f 20/103/13 17/104/13 28/105/13 27/106/13
f 23/107/14 24/108/14 25/109/14 32/110/14
